<?xml version="1.0" standalone="no"?>
<!DOCTYPE svg PUBLIC "-//W3C//DTD SVG 20010904//EN"
 "http://www.w3.org/TR/2001/REC-SVG-20010904/DTD/svg10.dtd">
<svg version="1.0" xmlns="http://www.w3.org/2000/svg"
 width="600.000000pt" height="600.000000pt" viewBox="0 0 600.000000 600.000000"
 preserveAspectRatio="xMidYMid meet">
<metadata>
Created by potrace 1.15, written by Peter Selinger 2001-2017
</metadata>
<g transform="translate(0.000000,600.000000) scale(0.100000,-0.100000)"
fill="#000000" stroke="none">
<path d="M657 3263 c-23 -38 -46 -74 -51 -80 -6 -10 57 -13 303 -13 l310 0 15
53 c8 28 18 64 21 80 l7 27 -280 0 -281 0 -44 -67z"/>
<path d="M1365 3318 c-14 -42 -35 -124 -35 -135 0 -10 60 -13 309 -13 l309 0
17 53 c9 28 20 64 25 80 l9 27 -119 0 -118 0 -12 -52 c-20 -84 -19 -84 -97
-13 l-71 65 -106 0 c-77 0 -108 -4 -111 -12z"/>
<path d="M2068 3255 c-27 -41 -48 -77 -48 -80 0 -3 147 -5 326 -5 l327 0 -7
32 c-8 41 -49 85 -101 109 -35 16 -67 19 -245 19 l-205 0 -47 -75z"/>
<path d="M2826 3278 c-8 -29 -18 -65 -21 -80 l-7 -28 114 0 115 0 18 68 c10
37 20 73 23 80 3 9 -23 12 -111 12 l-116 0 -15 -52z"/>
<path d="M3377 3263 c-23 -38 -46 -74 -51 -80 -6 -10 57 -13 303 -13 l310 0
15 53 c8 28 18 64 21 80 l7 27 -280 0 -281 0 -44 -67z"/>
<path d="M4200 3314 c-53 -23 -130 -105 -130 -139 0 -3 139 -5 308 -5 l308 0
21 80 21 80 -246 0 c-198 -1 -254 -4 -282 -16z"/>
<path d="M4940 3314 c-53 -23 -130 -105 -130 -139 0 -3 139 -5 308 -5 l308 0
21 80 21 80 -246 0 c-198 -1 -254 -4 -282 -16z"/>
<path d="M637 3103 c-3 -5 -28 -96 -56 -203 -29 -107 -54 -203 -57 -212 -5
-17 13 -18 275 -18 l280 0 15 51 c9 28 18 66 22 85 l6 34 -151 0 c-83 0 -151
3 -151 6 0 3 5 25 11 49 l11 45 156 2 156 3 17 56 c9 31 19 68 23 83 l6 26
-279 0 c-154 0 -282 -3 -284 -7z"/>
<path d="M1247 2898 c-31 -117 -57 -216 -57 -220 0 -5 47 -8 104 -8 l104 0 16
48 c8 26 33 112 55 191 22 79 42 146 45 148 3 3 36 -23 74 -57 l69 -63 -37
-131 -37 -131 115 -3 c63 -1 117 -1 119 2 3 2 29 96 59 208 30 112 56 209 59
216 3 9 -63 12 -313 12 l-317 0 -58 -212z"/>
<path d="M1996 2902 c-33 -114 -62 -213 -64 -219 -5 -16 377 -18 459 -3 101
19 159 60 221 155 42 64 63 126 73 218 l7 58 -104 -3 -103 -3 -7 -60 c-11 -81
-49 -141 -118 -182 -54 -33 -131 -45 -144 -24 -5 7 39 170 69 259 3 9 -23 12
-113 12 l-117 0 -59 -208z"/>
<path d="M2761 3043 c-34 -114 -101 -358 -101 -365 0 -5 103 -8 230 -8 l229 0
65 78 65 77 -158 3 -158 2 38 138 c21 75 39 138 39 140 0 1 -52 2 -115 2
l-114 0 -20 -67z"/>
<path d="M3357 3103 c-3 -5 -28 -96 -56 -203 -29 -107 -54 -203 -57 -212 -5
-17 13 -18 275 -18 l280 0 15 51 c9 28 18 66 22 85 l6 34 -151 0 c-83 0 -151
3 -151 6 0 3 5 25 11 49 l11 45 156 2 156 3 17 56 c9 31 19 68 23 83 l6 26
-279 0 c-154 0 -282 -3 -284 -7z"/>
<path d="M4050 3070 c0 -55 23 -95 61 -109 18 -6 80 -11 140 -11 84 0 111 -3
123 -16 21 -20 20 -37 -1 -63 -17 -20 -29 -21 -208 -23 l-189 -3 -22 -75 c-13
-41 -23 -81 -23 -87 -1 -10 58 -13 262 -13 242 0 265 2 307 21 93 42 143 122
143 229 0 101 -40 160 -123 179 -25 6 -141 11 -257 11 l-213 0 0 -40z"/>
<path d="M4790 3070 c0 -55 23 -95 61 -109 18 -6 80 -11 140 -11 84 0 111 -3
123 -16 21 -20 20 -37 -1 -63 -17 -20 -29 -21 -208 -23 l-189 -3 -22 -75 c-13
-41 -23 -81 -23 -87 -1 -10 58 -13 262 -13 254 0 263 1 312 24 61 28 87 56
116 121 40 91 27 197 -33 252 -37 34 -98 42 -325 43 l-213 0 0 -40z"/>
</g>
</svg>
