<?xml version="1.0" standalone="no"?>
<!DOCTYPE svg PUBLIC "-//W3C//DTD SVG 20010904//EN"
 "http://www.w3.org/TR/2001/REC-SVG-20010904/DTD/svg10.dtd">
<svg version="1.0" xmlns="http://www.w3.org/2000/svg"
 width="1000.000000pt" height="1000.000000pt" viewBox="0 0 1000.000000 1000.000000"
 preserveAspectRatio="xMidYMid meet">
<metadata>
Created by potrace 1.11, written by Peter Selinger 2001-2013
</metadata>
<g transform="translate(0.000000,1000.000000) scale(0.100000,-0.100000)"
fill="#000000" stroke="none">
<path d="M5147 8905 c-15 -47 -16 -69 -9 -105 12 -58 12 -81 -2 -99 -9 -12 -8
-13 3 -7 17 11 31 -10 31 -46 0 -15 5 -30 10 -33 6 -4 8 -15 5 -25 -3 -11 -1
-29 5 -40 6 -12 9 -29 7 -38 -3 -14 -6 -12 -15 8 l-11 25 0 -30 c0 -16 3 -37
8 -45 6 -8 7 -18 4 -23 -7 -11 -32 24 -33 46 0 18 -17 22 -39 8 -11 -7 -11
-13 -1 -32 10 -17 10 -24 1 -27 -6 -2 -9 -8 -6 -12 3 -5 -2 -33 -11 -61 -16
-49 -18 -51 -27 -28 -5 14 -11 19 -14 12 -9 -25 -23 -13 -23 20 0 17 14 105
30 194 21 115 27 169 21 185 -13 30 -55 89 -47 65 7 -22 -3 -45 -13 -29 -4 7
-13 5 -26 -4 -17 -13 -18 -19 -7 -72 12 -58 6 -162 -9 -162 -5 0 -9 -31 -9
-69 0 -90 -9 -131 -27 -131 -16 0 -14 -28 3 -75 7 -19 6 -19 -12 -3 -10 9 -23
17 -29 18 -19 4 -50 20 -95 50 -25 16 -52 32 -60 36 -19 7 -48 21 -80 38 -14
8 -43 17 -65 21 l-40 7 26 -29 c42 -45 84 -114 99 -162 8 -24 19 -49 25 -55 5
-6 11 -22 12 -36 2 -27 6 -63 22 -175 5 -38 12 -104 16 -145 3 -41 9 -101 14
-132 4 -32 4 -58 0 -58 -4 0 -60 66 -125 148 -192 239 -320 356 -481 439 -83
42 -113 52 -113 34 0 -5 -19 -3 -42 4 -59 17 -192 30 -185 17 4 -5 27 -12 51
-14 57 -7 186 -68 246 -116 25 -20 47 -40 48 -44 4 -10 42 -31 42 -24 0 3 -9
14 -21 25 -12 11 -19 25 -17 31 2 6 26 -9 53 -34 28 -25 58 -45 67 -46 19 0
38 -28 31 -46 -2 -6 6 -19 17 -29 12 -11 20 -13 20 -6 0 6 -7 14 -15 17 -8 4
-15 11 -15 17 0 5 9 2 20 -8 11 -10 20 -26 20 -36 0 -10 5 -21 12 -25 7 -5 8
-2 3 7 -5 8 -4 11 0 6 5 -4 10 -17 12 -29 2 -12 8 -28 15 -35 17 -21 4 -25
-35 -8 -42 17 -50 19 -42 6 6 -11 -64 -3 -80 9 -15 12 -54 4 -107 -19 -48 -22
-70 -41 -46 -41 23 0 100 -81 153 -160 28 -41 52 -77 55 -80 9 -9 120 -238
120 -248 0 -15 26 -22 81 -22 60 0 57 -12 -6 -30 -36 -10 -45 -16 -39 -29 3
-9 10 -33 15 -54 5 -21 16 -48 24 -61 8 -12 12 -26 8 -29 -3 -4 -1 -7 5 -7 7
0 12 -6 12 -14 0 -8 4 -16 9 -18 4 -1 11 -28 15 -58 6 -52 6 -54 -8 -30 -26
43 -55 106 -90 195 -12 28 -26 44 -46 52 -26 10 -36 7 -90 -25 -33 -21 -60
-40 -60 -45 0 -4 32 -24 72 -45 107 -56 196 -122 208 -156 13 -38 13 -39 -7
-31 -46 18 -210 77 -228 81 -74 16 -88 16 -97 0 -5 -9 -13 -14 -19 -11 -5 4
-33 6 -61 5 -29 -1 -63 -1 -75 -1 -47 1 -30 -17 27 -28 33 -7 62 -16 65 -21 4
-6 14 -10 24 -10 10 0 28 -9 40 -20 l23 -19 -39 6 c-21 3 -55 12 -77 20 -63
22 -75 14 -16 -10 56 -24 110 -53 78 -43 -9 3 -45 8 -79 12 -45 5 -60 4 -55
-5 5 -7 -2 -11 -18 -11 -14 0 -26 -4 -26 -10 0 -5 9 -10 21 -10 35 0 15 -24
-24 -31 -70 -11 -50 -19 46 -19 53 0 120 -6 149 -12 l53 -13 -112 -5 c-62 -3
-115 -8 -118 -12 -6 -5 122 -102 210 -159 22 -15 63 -46 90 -71 28 -24 72 -59
99 -77 l50 -33 30 36 c26 31 39 38 82 43 41 4 59 1 102 -21 28 -14 54 -26 57
-26 3 0 5 26 6 58 0 52 15 154 18 124 1 -10 6 -10 23 -1 12 7 36 12 52 11 17
0 37 4 44 11 14 11 77 11 94 1 5 -3 -9 -25 -31 -49 -21 -23 -47 -58 -57 -76
-9 -19 -30 -54 -47 -78 -24 -35 -27 -45 -16 -52 8 -5 54 -32 104 -61 97 -57
181 -130 170 -147 -4 -7 -16 1 -32 19 -13 17 -29 28 -33 25 -5 -3 -11 -1 -15
5 -3 5 -12 10 -18 10 -7 0 -6 -4 3 -10 10 -7 11 -10 2 -10 -7 0 -15 7 -18 15
-8 19 -24 20 -24 1 0 -9 -7 -12 -20 -9 -11 3 -20 8 -20 12 0 7 -54 6 -80 -1
-8 -3 -12 -3 -7 -1 10 6 9 33 -2 33 -5 0 -11 -7 -15 -15 -7 -18 -36 -9 -36 12
0 12 -3 13 -14 4 -11 -9 -15 -9 -19 1 -3 8 -6 8 -6 2 -1 -15 11 -24 99 -71
101 -54 171 -96 242 -144 39 -27 65 -38 78 -34 13 4 23 -1 33 -17 18 -28 34
-81 18 -58 -6 8 -11 13 -11 10 -2 -46 -58 -308 -81 -377 -38 -114 -60 -146
-97 -137 -15 4 -142 56 -282 116 l-254 109 -136 -66 c-74 -36 -165 -80 -202
-98 -37 -18 -67 -39 -68 -47 0 -11 -2 -12 -8 -3 -8 13 -52 6 -52 -8 0 -5 12
-14 26 -19 15 -6 40 -20 56 -31 26 -19 40 -20 161 -18 131 3 132 3 187 -27 30
-17 127 -70 215 -119 179 -99 244 -140 247 -158 1 -7 2 -23 2 -37 1 -23 9 -27
111 -55 105 -29 110 -32 115 -60 3 -17 14 -47 23 -67 16 -36 16 -41 -13 -175
-16 -76 -43 -182 -59 -237 -17 -54 -31 -100 -31 -102 0 -2 -7 -4 -16 -4 -8 0
-12 -5 -8 -11 11 -18 -39 0 -54 20 -7 9 -10 27 -8 41 l6 25 -16 -23 c-22 -29
-36 -28 -56 6 -12 20 -13 32 -5 50 5 12 14 22 19 22 4 0 8 8 7 18 0 10 -3 12
-6 5 -2 -7 -9 -13 -15 -13 -7 0 -6 5 2 14 6 8 18 12 26 9 8 -3 14 0 14 5 0 6
-8 13 -17 15 -16 4 -15 6 3 12 15 5 20 14 19 35 -1 16 2 27 6 24 8 -5 21 28
25 66 1 14 6 35 9 48 6 17 3 22 -11 22 -16 0 -14 3 8 18 24 16 25 19 12 37 -8
10 -12 27 -8 37 3 12 0 18 -9 18 -8 0 -18 7 -21 16 -3 8 -2 12 4 9 15 -9 12 9
-6 31 -8 10 -13 13 -9 7 3 -7 2 -13 -4 -13 -5 0 -13 9 -16 20 -3 11 -13 20
-22 20 -9 0 -13 6 -9 15 3 8 3 15 1 15 -6 0 -27 -50 -91 -219 -66 -175 -96
-231 -126 -231 -35 0 -234 66 -373 123 -71 30 -164 68 -205 85 -105 43 -364
86 -340 57 7 -8 6 -23 -1 -44 -10 -29 -8 -35 29 -84 70 -91 96 -113 187 -157
94 -44 385 -168 420 -177 24 -7 115 -93 115 -109 0 -7 -40 -79 -89 -161 -49
-83 -114 -200 -145 -262 -31 -61 -63 -114 -71 -117 -8 -3 -54 6 -104 20 -49
14 -97 26 -105 26 -9 0 -16 5 -16 10 0 6 -7 10 -15 10 -9 0 -41 9 -73 21 -31
11 -61 22 -67 23 -31 8 -145 46 -175 59 -30 13 -42 29 -80 109 -25 51 -48 95
-52 98 -3 3 -10 18 -13 33 -10 38 -25 44 -47 17 -13 -15 -15 -26 -8 -30 6 -4
13 -42 15 -86 7 -142 43 -293 80 -330 13 -13 18 -25 12 -27 -6 -2 19 -18 56
-36 36 -18 71 -30 77 -26 5 3 10 2 10 -3 0 -16 68 -30 107 -22 20 5 41 6 46 3
4 -3 11 4 14 16 3 12 11 21 19 21 15 0 66 95 62 118 -2 8 2 17 9 19 20 7 108
-314 99 -359 -3 -16 -26 -81 -51 -143 -25 -63 -66 -168 -91 -232 -56 -143 -59
-148 -99 -127 -17 8 -31 15 -32 15 -2 -1 -21 -1 -44 -1 -28 0 -38 4 -33 12 4
6 3 9 -2 5 -11 -6 -112 16 -141 31 -11 6 -23 8 -27 5 -3 -3 -16 2 -28 13 -12
10 -18 13 -14 6 6 -9 1 -11 -18 -8 -14 3 -31 8 -37 12 -6 4 -30 8 -53 10 -22
1 -62 10 -88 19 l-48 17 0 94 c0 92 4 106 27 83 17 -17 72 8 79 36 3 12 4 41
2 66 l-3 44 -24 -48 c-30 -62 -58 -74 -86 -38 -31 39 -27 117 9 171 26 39 30
42 67 38 32 -3 39 0 39 14 0 10 -7 18 -15 18 -13 0 -15 8 -10 38 9 55 26 135
32 152 5 14 9 40 16 114 2 18 7 38 11 45 4 6 3 11 -2 11 -14 0 -12 72 1 89 10
12 8 12 -12 1 -21 -11 -23 -10 -18 4 4 10 0 28 -9 42 -11 16 -12 24 -5 24 7 0
10 4 6 9 -3 5 -1 12 5 16 5 3 10 11 10 17 0 6 -5 7 -13 2 -7 -5 -5 -2 5 8 19
17 25 33 8 23 -6 -3 -10 1 -10 9 0 9 5 16 12 16 6 0 9 2 6 5 -12 12 -59 -7
-54 -21 3 -8 -1 -14 -9 -14 -7 0 -17 -9 -20 -20 -9 -28 -25 -25 -26 5 -3 87 5
122 30 130 21 7 81 63 81 76 0 6 5 7 10 4 6 -4 8 -10 5 -15 -3 -5 -1 -11 5
-15 13 -8 13 30 1 54 -6 10 -6 23 0 32 8 12 9 12 9 -1 0 -10 3 -11 11 -3 6 6
17 9 24 7 20 -8 28 14 11 31 -19 19 -30 19 -22 0 3 -8 1 -15 -4 -15 -13 0 -13
25 0 48 9 15 53 130 55 142 0 3 6 15 13 28 7 12 10 22 8 22 -3 0 5 28 18 63
13 34 22 73 21 87 -1 14 1 32 5 40 11 21 -29 66 -54 62 -15 -3 -18 0 -13 17 3
14 0 21 -9 21 -8 0 -14 4 -14 9 0 5 8 8 18 6 9 -1 23 2 30 8 10 8 16 7 22 -2
6 -11 18 -10 64 4 30 10 53 21 51 25 -3 4 6 15 20 24 14 9 25 21 25 27 0 5 16
44 35 85 19 41 35 77 35 80 0 3 8 24 18 47 41 95 52 123 55 152 3 21 9 30 21
29 21 -2 50 40 42 61 -3 8 -12 12 -21 9 -8 -3 -15 -1 -15 5 0 20 -29 11 -46
-14 -25 -38 -31 -31 -30 32 1 48 4 58 19 61 26 5 54 31 79 70 29 47 33 33 7
-22 -13 -25 -20 -48 -16 -52 7 -7 62 30 94 64 24 25 52 83 108 219 28 66 45
94 63 102 23 11 23 10 17 -20 -4 -18 -22 -55 -39 -83 -30 -47 -86 -165 -86
-180 0 -3 5 -6 10 -6 6 0 10 8 10 19 0 22 23 44 35 33 5 -4 6 0 2 9 -3 10 3
26 14 38 11 12 25 36 31 54 6 17 14 34 17 37 3 3 17 28 30 55 13 28 39 73 58
101 31 47 34 55 25 87 -12 43 12 100 64 152 32 32 57 74 87 148 15 36 15 37
-3 27 -10 -6 -22 -15 -25 -20 -12 -19 -39 -10 -66 23 -24 29 -32 32 -82 31
l-55 0 2 38 c2 37 1 38 -31 38 -18 0 -33 5 -33 10 0 6 -11 10 -24 10 -34 0
-56 10 -56 25 0 8 -8 11 -20 8 -26 -7 -25 -11 9 -167 44 -194 45 -199 32 -192
-6 4 -9 1 -5 -7 3 -8 -6 -28 -20 -44 -14 -17 -30 -51 -36 -78 -11 -47 -23 -65
-111 -155 -35 -36 -50 -45 -62 -39 -11 7 -17 4 -22 -11 -3 -11 -13 -20 -21
-20 -8 0 -14 -4 -14 -10 0 -5 -4 -10 -10 -10 -5 0 -10 5 -10 11 0 7 -6 17 -14
23 -8 6 -29 39 -46 74 -23 44 -37 61 -47 58 -8 -3 -19 -6 -24 -6 -6 0 -7 -4
-4 -10 3 -5 1 -10 -4 -10 -6 0 -11 4 -11 8 0 5 -6 9 -12 9 -7 0 -24 3 -37 7
-15 6 -21 5 -17 -2 3 -6 1 -14 -5 -18 -7 -4 -9 -3 -5 4 3 6 2 13 -4 17 -6 4
-8 10 -5 14 2 5 -11 6 -30 4 -18 -2 -36 1 -40 7 -4 6 -11 7 -17 4 -7 -5 -9 -1
-5 9 5 14 3 15 -18 5 -20 -9 -28 -8 -44 6 -12 11 -21 14 -26 7 -3 -6 -11 -11
-16 -11 -6 0 -8 4 -5 9 4 5 -2 7 -13 4 -10 -3 -22 0 -26 7 -5 8 -10 8 -21 -1
-10 -8 -14 -8 -14 0 0 6 -5 11 -12 11 -9 0 -9 -3 -1 -11 9 -9 9 -16 0 -29 -8
-14 -7 -23 4 -37 13 -16 13 -17 -3 -4 -10 7 -18 17 -18 22 0 5 -11 26 -23 47
-13 20 -31 49 -40 64 -15 24 -19 25 -42 15 -15 -7 -23 -18 -20 -26 3 -7 0 -20
-6 -27 -8 -10 -8 -14 0 -14 6 0 11 -5 11 -11 0 -6 -7 -9 -14 -6 -10 4 -13 1
-9 -9 3 -7 8 -14 12 -14 13 0 28 -65 20 -85 -5 -13 -8 -15 -8 -5 -1 8 -18 25
-39 38 -69 41 -77 47 -84 57 -16 22 -33 -18 -35 -80 -1 -36 0 -65 2 -65 3 0
15 10 26 21 19 19 28 21 91 14 83 -8 303 -73 403 -119 52 -25 85 -49 131 -98
71 -76 111 -130 92 -123 -8 3 -27 -6 -44 -20 -16 -14 -24 -25 -19 -25 6 0 2
-5 -8 -11 -9 -6 -15 -14 -12 -20 4 -5 1 -9 -4 -9 -6 0 -11 -6 -11 -14 0 -8 -9
-18 -20 -21 -11 -3 -20 -14 -20 -24 0 -9 -9 -27 -20 -38 -10 -12 -22 -33 -26
-47 -3 -14 -12 -26 -20 -26 -8 0 -14 -10 -14 -24 0 -13 -7 -26 -15 -30 -8 -3
-15 -12 -15 -21 0 -8 -7 -15 -16 -15 -9 0 -14 -6 -11 -14 6 -14 -31 -51 -41
-41 -3 3 -11 -5 -18 -17 -12 -23 -40 -30 -59 -15 -54 43 -127 80 -170 86 -46
7 -128 36 -232 82 -23 11 -47 19 -52 19 -6 0 -36 11 -67 25 -71 32 -74 31 -40
-4 59 -61 -20 -42 -202 49 -46 23 -86 39 -89 36 -3 -2 8 -11 25 -20 16 -8 54
-36 83 -61 30 -26 78 -60 107 -76 28 -17 52 -35 52 -40 0 -6 5 -7 10 -4 6 3
10 2 10 -3 0 -13 168 -95 239 -118 44 -14 60 -15 85 -6 28 11 32 10 68 -28 21
-22 43 -40 48 -40 6 0 10 -4 10 -8 0 -4 -17 -8 -37 -9 -21 0 -55 -5 -75 -10
-21 -6 -37 -8 -37 -4 3 19 -15 50 -34 59 -85 42 -249 116 -282 128 -36 12 -38
12 -21 -1 26 -20 6 -20 -63 1 -29 8 -55 14 -57 12 -2 -3 32 -20 76 -38 87 -37
124 -65 101 -79 -11 -7 205 -82 486 -168 51 -15 93 -32 93 -37 0 -4 -7 -5 -16
-2 -8 3 -12 2 -9 -4 3 -6 0 -10 -8 -10 -8 0 -20 -7 -27 -15 -7 -9 -19 -14 -26
-11 -7 3 -16 1 -19 -4 -4 -6 -1 -10 4 -10 21 0 10 -20 -14 -26 -14 -3 -22 -11
-18 -17 3 -5 -2 -16 -13 -24 -16 -12 -17 -15 -4 -23 12 -8 12 -10 -5 -11 -11
-1 -25 -2 -31 -2 -6 0 -9 -10 -7 -21 3 -13 -2 -28 -11 -35 -9 -8 -16 -22 -16
-32 0 -10 -8 -20 -18 -24 -11 -3 -24 -17 -30 -30 -7 -15 -21 -25 -34 -26 -17
-1 -19 -2 -5 -6 20 -5 21 -8 6 -36 -17 -31 -45 -57 -55 -49 -5 4 -3 0 4 -9 9
-13 8 -20 -8 -37 -11 -12 -20 -29 -21 -39 0 -11 -3 -13 -6 -5 -2 6 -9 10 -13
7 -5 -3 -7 -12 -4 -19 3 -7 -2 -19 -10 -26 -9 -7 -13 -17 -9 -22 3 -6 0 -8 -8
-6 -8 3 -30 -6 -49 -19 -59 -40 -56 -41 -310 95 -159 85 -175 92 -187 76 -7
-9 -10 -20 -8 -25 3 -4 -1 -9 -7 -12 -7 -2 2 -7 19 -11 18 -4 33 -10 33 -13 0
-13 -68 -55 -94 -57 -5 -1 -11 -7 -14 -15 -3 -9 0 -11 8 -6 8 5 11 3 8 -6 -3
-8 -14 -13 -24 -11 -15 2 -16 1 -5 -6 7 -6 11 -14 7 -20 -3 -6 0 -13 6 -16 7
-3 2 -3 -10 0 -21 5 -23 3 -17 -15 6 -19 -1 -25 -25 -23 -3 0 -5 -16 -5 -36 0
-30 -4 -37 -20 -37 -16 0 -20 -6 -18 -28 1 -19 -2 -26 -10 -21 -9 5 -9 3 0 -7
15 -15 17 -33 4 -25 -5 3 -11 -3 -14 -14 -3 -12 -1 -18 5 -14 7 4 7 -2 2 -17
-4 -13 -8 -32 -8 -41 0 -10 -3 -18 -6 -18 -3 0 -5 -46 -5 -103 l0 -102 45 3
c25 2 48 6 51 10 3 4 16 75 28 158 35 240 16 213 194 283 84 32 154 57 156 55
2 -2 -9 -16 -25 -30 -18 -17 -25 -28 -17 -31 10 -3 10 -7 0 -18 -9 -9 -14 -10
-20 -1 -5 6 -7 2 -4 -11 3 -13 1 -26 -4 -29 -5 -3 -9 -14 -9 -25 0 -10 -5 -19
-11 -19 -13 0 -48 -41 -49 -56 0 -6 -7 -17 -15 -24 -9 -7 -13 -15 -11 -18 3
-2 17 10 31 27 15 17 33 31 40 31 8 0 21 8 31 17 22 22 59 18 131 -13 30 -14
58 -22 61 -20 3 3 11 -2 18 -12 16 -20 18 -72 4 -72 -13 0 -13 -41 0 -75 7
-18 6 -41 -2 -73 -15 -64 -75 -212 -93 -232 -8 -9 -15 -26 -15 -37 0 -28 -38
-113 -63 -141 -28 -31 -84 -44 -140 -33 -38 7 -47 5 -52 -8 -3 -8 -3 -12 1 -8
4 4 13 -1 20 -11 8 -10 13 -12 14 -4 0 6 5 12 11 12 6 0 9 -6 6 -14 -4 -9 0
-12 12 -9 16 4 49 -22 51 -42 0 -10 18 -10 90 -3 34 3 35 2 38 -34 4 -48 58
-93 103 -84 18 3 29 1 29 -5 0 -7 5 -8 13 -3 20 15 90 11 95 -5 3 -9 0 -11 -8
-6 -9 5 -11 4 -6 -3 4 -6 2 -19 -3 -29 -5 -10 -12 -26 -15 -37 -8 -25 -45 -15
-111 29 -27 18 -51 30 -52 27 -1 -4 -7 -33 -13 -65 -6 -31 -15 -55 -20 -52 -5
3 -14 -4 -20 -15 -7 -12 -18 -19 -26 -16 -7 3 -18 -2 -23 -12 -8 -14 -14 -15
-43 -4 -46 16 -75 15 -82 -3 -7 -19 33 -30 77 -21 62 11 72 11 70 -1 -2 -7 2
-13 7 -13 6 0 10 11 10 24 0 35 15 40 31 10 11 -22 11 -27 -1 -34 -8 -6 -12
-10 -7 -11 4 -1 10 -2 15 -3 4 -1 13 -5 20 -9 6 -5 12 -4 12 2 0 5 10 7 23 4
12 -2 31 -5 42 -4 10 0 25 -5 32 -10 6 -6 16 -8 21 -5 6 3 13 -6 16 -19 4 -14
18 -31 32 -37 21 -10 25 -17 20 -40 -3 -18 -2 -27 4 -23 5 3 20 0 32 -7 13 -6
41 -13 64 -14 22 -1 51 -7 64 -14 66 -36 558 -54 646 -24 25 9 55 18 65 20 11
2 29 7 42 10 12 3 29 7 37 8 9 1 21 5 28 10 6 4 17 4 22 1 6 -3 10 -2 10 4 0
5 17 8 38 6 22 -2 46 2 60 11 13 8 31 12 42 9 10 -3 21 -1 25 5 3 5 17 10 31
10 14 0 34 5 45 10 13 8 19 7 19 0 0 -6 11 -3 25 6 13 8 29 13 35 9 5 -3 10 1
10 10 0 11 6 15 18 11 10 -4 27 1 38 9 10 8 29 15 42 15 12 0 22 6 22 14 0 10
10 14 30 14 16 -1 36 5 45 12 8 7 22 10 30 6 8 -3 15 -1 15 4 0 6 -4 10 -10
10 -5 0 -10 4 -10 10 0 5 7 7 15 4 8 -4 15 -1 15 5 0 6 -8 11 -17 12 -12 0
-13 2 -5 6 7 3 19 -1 28 -8 12 -10 16 -9 20 9 6 20 34 40 34 23 0 -16 40 1 51
20 5 11 19 19 29 19 11 0 20 7 20 15 0 8 5 15 10 15 6 0 10 -4 10 -10 0 -5 5
-10 10 -10 6 0 10 7 10 15 0 14 24 20 59 15 9 -1 12 4 7 17 -6 17 -5 17 8 0
11 -15 15 -15 19 -3 3 8 1 17 -6 20 -9 3 -9 5 0 5 6 1 14 -3 18 -8 3 -6 17 -4
32 4 15 8 30 11 33 7 8 -13 50 -9 50 4 0 16 29 11 40 -6 6 -10 9 -9 11 5 3 12
15 19 39 21 19 2 54 5 78 7 23 2 42 0 42 -5 0 -5 9 -4 21 2 11 7 60 14 107 17
124 7 121 7 117 13 -4 7 112 3 124 -5 6 -3 14 3 20 12 10 17 10 17 11 -1 0
-14 3 -16 13 -7 8 6 67 12 140 13 70 2 127 5 127 8 0 3 11 5 25 5 14 0 25 -4
25 -8 0 -5 6 -5 12 -1 7 5 51 9 97 10 46 1 86 6 90 11 3 4 30 8 58 8 29 0 53
3 53 7 0 4 8 7 18 7 50 0 109 9 129 19 17 9 23 9 27 -1 5 -9 7 -9 12 1 3 6 10
9 15 6 6 -3 16 0 24 6 12 10 15 10 15 0 0 -8 6 -9 18 -5 36 15 88 26 116 26
15 -1 34 3 40 8 11 9 79 29 116 34 8 1 22 10 33 20 14 15 21 16 33 6 8 -7 14
-7 14 -1 0 5 11 13 25 16 25 6 35 26 13 26 -21 0 1 13 27 16 16 2 23 -1 19 -8
-4 -6 -1 -9 7 -6 9 3 14 19 13 43 -1 20 1 33 5 29 3 -5 14 -15 23 -22 14 -11
16 -11 11 6 -2 11 0 23 6 26 6 4 11 16 11 26 0 10 6 21 13 23 9 4 9 8 -2 15
-12 9 -12 13 -2 26 8 9 9 16 3 16 -6 0 -12 -6 -15 -12 -2 -7 -8 -10 -12 -6 -4
4 -2 15 6 25 12 15 12 16 -3 10 -19 -7 -34 8 -18 18 6 4 1 14 -12 25 -18 14
-20 21 -10 32 9 12 8 19 -4 34 -8 10 -13 13 -9 7 3 -7 2 -13 -4 -13 -6 0 -7
-7 -4 -17 4 -11 3 -14 -6 -9 -8 5 -10 18 -6 33 5 21 3 24 -15 18 -23 -7 -26 4
-7 24 10 12 9 13 -7 7 -16 -5 -17 -4 -6 9 11 13 10 14 -6 9 -26 -10 -11 6 31
30 327 197 638 534 770 835 53 120 67 189 70 350 2 79 7 147 12 151 4 4 32 15
61 26 53 18 63 34 39 65 -18 23 -44 30 -57 14 -8 -10 -70 -28 -70 -19 0 1 -21
62 -46 135 -59 170 -91 235 -169 334 -56 72 -193 206 -234 229 -9 5 -18 12
-21 16 -3 4 -19 10 -37 13 -36 7 -73 39 -73 62 0 18 -12 19 -27 4 -13 -13
-233 70 -233 88 0 7 8 16 17 22 10 5 15 12 11 16 -7 7 -58 -23 -58 -35 0 -4
11 -15 25 -24 34 -22 231 -106 250 -106 9 0 12 -6 9 -15 -4 -9 0 -15 9 -15 8
0 17 -7 20 -15 5 -11 -1 -13 -31 -9 -83 11 -132 9 -132 -6 0 -5 17 -12 38 -16
20 -4 31 -9 25 -11 -7 -3 -13 -13 -13 -24 0 -11 -7 -19 -17 -20 -14 0 -13 -2
5 -9 12 -5 22 -17 22 -26 0 -11 -5 -14 -16 -10 -12 4 -15 2 -11 -9 4 -8 3 -17
-2 -19 -13 -8 -41 33 -41 59 0 18 -5 25 -20 25 -11 0 -20 5 -20 10 0 6 7 10
16 10 14 0 14 3 4 15 -7 8 -18 15 -24 15 -11 0 -50 39 -44 45 23 19 47 23 64
10 24 -18 34 -19 34 -2 0 7 -26 21 -57 32 -59 21 -77 40 -46 48 13 3 9 7 -14
12 -18 4 -31 12 -30 18 1 6 -9 13 -23 17 -14 4 -24 12 -22 18 1 7 -2 12 -8 12
-5 0 -10 -5 -10 -10 0 -6 -11 -3 -25 6 -19 12 -37 15 -69 11 -31 -5 -47 -2
-55 7 -9 10 -8 15 5 20 26 10 86 7 79 -4 -3 -5 3 -10 15 -10 12 0 18 5 15 10
-4 6 6 10 22 10 l28 0 -25 20 c-14 10 -41 21 -60 25 -64 11 -100 26 -111 47
-8 15 -8 19 0 14 6 -4 11 -2 11 3 0 6 -12 11 -26 11 -14 0 -23 4 -19 10 7 11
-57 28 -100 27 -53 -1 -107 13 -102 27 6 16 -53 39 -79 30 -13 -4 -10 2 10 19
32 28 30 30 -44 46 -81 18 -87 21 -72 30 13 8 -56 57 -164 117 l-51 28 -42
-33 c-23 -18 -44 -31 -47 -28 -3 3 0 24 6 47 7 26 8 46 2 52 -5 5 -40 20 -78
33 -65 22 -67 24 -31 24 24 1 37 6 37 15 0 16 44 26 83 19 17 -3 27 -1 27 6 0
26 278 131 346 131 13 0 24 4 24 8 0 14 -138 -2 -214 -24 -67 -19 -69 -11 -4
20 64 30 47 33 -45 7 -37 -10 -67 -15 -65 -11 10 27 215 224 246 237 69 29
210 63 299 73 l88 9 -115 -4 c-183 -6 -352 -49 -537 -136 -79 -36 -103 -44
-103 -32 0 24 28 129 61 230 30 91 31 92 67 99 70 11 91 23 32 18 -103 -10
-131 -14 -142 -20 -6 -4 -8 -3 -5 2 3 5 35 30 71 54 36 25 66 48 66 53 0 14
-31 7 -81 -19 -51 -25 -73 -28 -44 -4 21 17 19 30 -4 30 -12 0 -29 -17 -45
-45 -15 -25 -31 -45 -37 -45 -6 0 -7 -4 -4 -10 3 -5 1 -10 -4 -10 -6 0 -11 -6
-11 -14 0 -8 -4 -18 -10 -21 -17 -11 61 178 134 323 20 40 36 74 36 76 0 9
-34 -7 -42 -18 -5 -7 -8 -6 -8 3 0 7 -6 11 -15 7 -18 -7 -19 -3 -20 109 0 69
-3 89 -13 87 -8 -1 -11 2 -7 9 4 6 10 28 12 48 7 46 44 120 74 146 l23 20 -23
-40 -23 -40 31 35 31 35 -46 23 c-39 20 -56 23 -100 17 -49 -6 -60 -12 -124
-73 -38 -37 -70 -73 -70 -80 0 -6 -9 -12 -20 -12 -13 0 -20 -6 -19 -17 0 -11
3 -13 6 -5 2 6 10 12 16 12 7 -1 2 -9 -10 -19 -13 -11 -23 -24 -23 -30 0 -5
-8 -16 -18 -23 -10 -7 -21 -21 -25 -30 -4 -11 -12 -15 -22 -12 -13 5 -15 1
-11 -19 4 -21 1 -25 -12 -20 -15 6 -15 5 -3 -10 12 -15 11 -17 -8 -17 -21 0
-23 -5 -23 -62 -1 -18 -5 -25 -14 -21 -19 7 -18 21 12 93 92 227 183 328 322
360 51 12 53 14 47 39 -14 57 -97 257 -112 268 -12 9 -16 43 -20 155 -3 79 -6
144 -8 145 -4 6 -180 -160 -177 -168 1 -5 -4 -9 -11 -9 -13 0 -47 -34 -47 -48
0 -11 -37 -41 -44 -35 -7 8 -86 -76 -86 -92 0 -7 -7 -15 -15 -19 -8 -3 -15
-16 -15 -30 0 -27 -23 -56 -45 -56 -7 0 -16 -12 -19 -26 -4 -15 -10 -24 -13
-21 -8 9 -34 -27 -77 -103 -50 -90 -45 -67 7 30 74 142 100 180 176 260 64 68
72 85 44 94 -18 6 -50 71 -78 161 -9 28 -20 59 -25 70 -4 11 -12 49 -17 85
l-8 65 -18 -60z m257 -617 c-25 -23 -57 -64 -70 -91 -14 -26 -32 -51 -40 -54
-8 -3 -13 -12 -10 -20 3 -7 -1 -16 -9 -19 -8 -3 -17 -16 -21 -27 -16 -52 -48
-111 -52 -95 -2 9 13 53 32 98 61 138 149 250 197 250 14 0 8 -10 -27 -42z
m211 11 c28 -27 1 -24 -55 6 l-45 25 40 -6 c22 -3 49 -15 60 -25z m-835 -139
c0 -5 -7 -7 -15 -4 -8 4 -12 10 -9 15 6 11 24 2 24 -11z m20 -131 c0 -6 -4 -7
-10 -4 -5 3 -10 11 -10 16 0 6 5 7 10 4 6 -3 10 -11 10 -16z m779 -101 c-10
-29 -18 -62 -19 -73 0 -12 -5 -26 -11 -32 -6 -6 -13 -35 -15 -65 -2 -29 -8
-69 -14 -88 -13 -44 -13 -53 1 -44 8 4 8 0 0 -15 -7 -12 -9 -36 -5 -56 5 -29
3 -35 -10 -35 -10 0 -14 -5 -11 -10 4 -6 -1 -24 -9 -42 -20 -38 -20 -38 -1
-38 8 0 15 -4 15 -10 0 -5 -7 -10 -15 -10 -8 0 -17 -11 -21 -25 -3 -13 -13
-30 -22 -37 -14 -12 -14 -9 -8 22 5 19 8 48 7 64 -2 30 13 115 29 171 5 17 14
64 21 105 6 41 23 104 36 140 14 36 27 74 30 85 3 11 10 26 16 33 21 26 23 10
6 -40z m-59 -54 c0 -8 -5 -12 -10 -9 -6 4 -8 11 -5 16 9 14 15 11 15 -7z m40
-134 c0 -5 -5 -10 -11 -10 -5 0 -7 5 -4 10 3 6 8 10 11 10 2 0 4 -4 4 -10z
m-1270 -10 c0 -5 -7 -7 -15 -4 -8 4 -15 8 -15 10 0 2 7 4 15 4 8 0 15 -4 15
-10z m36 -18 c-3 -3 0 -12 7 -20 10 -13 9 -14 -10 -3 -26 13 -32 44 -8 34 9
-3 13 -8 11 -11z m1044 -12 c0 -5 -5 -10 -11 -10 -5 0 -7 5 -4 10 3 6 8 10 11
10 2 0 4 -4 4 -10z m190 -9 c0 -6 -4 -13 -10 -16 -5 -3 -10 1 -10 9 0 9 5 16
10 16 6 0 10 -4 10 -9z m-200 -52 c0 -11 -4 -17 -10 -14 -5 3 -10 13 -10 21 0
8 5 14 10 14 6 0 10 -9 10 -21z m-986 -7 c13 -9 21 -23 18 -31 -2 -7 -1 -16 4
-20 29 -21 99 -161 91 -184 -2 -6 -16 15 -31 48 -30 66 -74 135 -94 148 -7 5
-10 13 -6 18 3 5 0 16 -6 24 -17 20 -3 19 24 -3z m64 -47 c-3 -3 -9 2 -12 12
-6 14 -5 15 5 6 7 -7 10 -15 7 -18z m17 -25 c3 -5 1 -10 -4 -10 -6 0 -11 5
-11 10 0 6 2 10 4 10 3 0 8 -4 11 -10z m15 -30 c0 -5 -2 -10 -4 -10 -3 0 -8 5
-11 10 -3 6 -1 10 4 10 6 0 11 -4 11 -10z m910 -56 c0 -8 -4 -12 -10 -9 -5 3
-10 10 -10 16 0 5 5 9 10 9 6 0 10 -7 10 -16z m204 -169 c8 -11 28 -46 43 -77
26 -52 28 -55 33 -31 3 15 11 28 17 30 9 3 8 -6 -3 -32 -10 -25 -13 -51 -9
-76 4 -26 3 -39 -4 -39 -6 0 -50 37 -99 81 -48 45 -111 98 -141 118 l-55 36
40 5 c21 3 67 5 101 5 50 0 65 -4 77 -20z m-911 -206 c23 19 63 10 59 -13 -3
-17 2 -18 72 -11 75 7 157 0 155 -13 0 -4 -32 -23 -71 -42 -49 -24 -112 -71
-208 -156 -160 -141 -208 -179 -216 -171 -8 7 20 80 63 170 18 37 33 72 33 76
0 5 21 40 46 78 25 37 40 69 35 71 -6 2 -11 11 -11 20 0 13 2 13 14 -3 12 -16
16 -17 29 -6z m-408 -79 c4 -6 -5 -10 -19 -10 -14 0 -26 5 -26 10 0 6 9 10 19
10 11 0 23 -4 26 -10z m1148 -572 c3 -123 12 -284 20 -358 14 -134 15 -255 2
-268 -12 -12 -35 28 -145 254 -98 203 -209 394 -246 424 -20 18 -17 29 6 23
12 -3 20 0 20 7 0 7 6 10 14 7 8 -3 16 -3 18 2 7 17 103 61 167 77 38 9 82 24
98 34 15 10 31 19 34 19 3 1 9 -99 12 -221z m-1228 32 c3 -5 -1 -10 -10 -10
-9 0 -13 5 -10 10 3 6 8 10 10 10 2 0 7 -4 10 -10z m124 -104 c9 -11 10 -20 1
-35 -6 -12 -14 -21 -19 -21 -5 0 -16 -20 -25 -44 -17 -44 -42 -61 -67 -46 -10
7 -10 16 -2 44 14 45 1 47 -39 9 -27 -26 -28 -26 -28 -5 0 28 71 102 97 102
12 0 24 7 27 15 6 18 32 8 55 -19z m2013 -111 c51 -9 104 -18 118 -21 l25 -6
-25 -19 -25 -19 34 0 c19 0 32 -2 30 -4 -5 -6 -67 -17 -101 -19 -16 -1 -28 -7
-28 -12 0 -17 22 -35 42 -35 15 0 16 -3 4 -32 -13 -30 -12 -33 9 -50 28 -22
54 -23 61 -3 8 20 44 -3 44 -30 0 -16 2 -17 9 -6 7 11 14 7 30 -19 20 -34 51
-49 51 -25 0 7 8 16 17 20 19 7 53 -26 53 -51 0 -15 31 -34 56 -34 9 0 30 -13
46 -30 15 -16 33 -30 40 -30 6 0 8 -3 5 -6 -3 -4 -2 -15 4 -26 9 -18 8 -18
-10 -8 -14 7 -21 7 -21 0 0 -5 -7 -10 -15 -10 -8 0 -15 -6 -15 -12 0 -20 18
-43 26 -35 4 4 16 0 25 -9 17 -16 19 -16 25 0 10 26 38 19 87 -24 36 -32 45
-46 43 -67 -2 -15 -10 -29 -18 -32 -10 -4 -14 -16 -12 -33 2 -19 -2 -28 -12
-28 -9 0 -14 11 -14 30 0 36 3 46 12 43 4 -2 -4 14 -17 34 -14 19 -25 41 -25
48 0 7 -11 10 -31 7 -21 -3 -29 -9 -26 -21 2 -9 10 -15 18 -13 8 2 11 1 8 -3
-4 -3 -1 -26 7 -51 11 -38 11 -44 -1 -44 -8 0 -15 -4 -15 -10 0 -5 4 -10 8
-10 5 0 6 -19 3 -42 -6 -41 -8 -43 -46 -49 -22 -3 -47 -9 -56 -13 -12 -5 -22
0 -32 14 -9 13 -20 19 -27 15 -8 -5 -6 -11 7 -21 17 -13 17 -13 -2 -14 -35 -1
-48 -15 -36 -38 10 -18 7 -21 -20 -27 -23 -5 -34 -3 -43 11 -13 17 -36 12 -36
-7 0 -6 4 -8 9 -5 10 7 23 -18 27 -52 3 -22 2 -22 -32 7 -42 37 -102 42 -148
12 -17 -11 -34 -17 -39 -14 -6 3 -8 2 -4 -3 3 -5 -1 -34 -9 -64 l-14 -54 40
-38 c22 -21 40 -43 40 -49 0 -6 4 -8 9 -5 5 4 21 -8 35 -25 14 -16 30 -28 35
-25 5 3 15 -2 22 -11 12 -15 12 -16 -3 -10 -13 4 -18 1 -18 -9 0 -10 -6 -14
-14 -11 -9 4 -16 -3 -19 -21 -7 -35 0 -45 27 -40 19 4 22 1 18 -18 -2 -13 3
-30 12 -39 9 -9 16 -13 16 -9 0 3 7 1 15 -6 9 -7 31 -13 50 -12 38 1 46 -11
18 -27 -15 -8 -16 -13 -7 -28 7 -10 19 -17 28 -17 9 1 13 -3 9 -9 -4 -6 0 -8
9 -4 20 7 45 -42 27 -54 -7 -4 -23 -3 -36 2 -14 5 -23 5 -23 -1 0 -6 -8 -10
-17 -9 -11 0 -13 3 -5 6 16 6 15 23 -2 23 -8 0 -17 7 -20 16 -3 8 -10 12 -16
9 -15 -9 -30 4 -24 20 5 12 8 12 21 -1 15 -15 35 -16 34 -1 -1 4 -1 17 -1 29
0 17 -3 19 -12 10 -7 -7 -25 -12 -41 -12 -23 0 -27 -3 -19 -13 8 -9 4 -19 -15
-37 -21 -20 -28 -22 -44 -12 -16 10 -21 8 -35 -13 -13 -20 -20 -23 -35 -14
-13 7 -19 6 -19 -1 0 -6 -10 -8 -27 -4 -22 6 -25 4 -20 -10 5 -11 2 -16 -8
-14 -7 2 -14 -1 -14 -7 0 -5 9 -8 21 -7 15 3 19 0 15 -11 -3 -9 -1 -18 6 -20
9 -3 8 -8 -2 -21 -10 -12 -22 -15 -45 -10 -39 8 -38 6 -26 38 9 24 8 27 -7 24
-10 -2 -17 -11 -15 -19 2 -10 -1 -9 -11 3 -15 19 -90 19 -141 -1 -27 -11 -28
-13 -11 -25 17 -12 17 -13 -4 -19 -36 -9 -75 13 -94 52 l-16 36 5 -32 c8 -48
-8 -40 -34 17 -13 28 -29 50 -36 50 -8 0 -16 7 -20 15 -3 8 -10 15 -15 15 -6
0 -8 -7 -5 -15 4 -9 0 -15 -9 -15 -8 0 -20 7 -27 15 -7 8 -19 15 -26 15 -8 0
-14 5 -14 10 0 6 -6 10 -14 10 -9 0 -12 7 -9 18 4 15 -1 19 -26 20 -27 1 -30
-2 -21 -18 6 -10 10 -22 10 -27 -1 -4 -10 9 -20 29 -21 39 -65 88 -79 88 -5 0
-11 9 -14 20 -7 26 -33 26 -47 -1 -11 -20 -59 -25 -52 -4 2 5 -5 12 -15 16 -9
3 -20 17 -23 30 -9 36 -34 30 -38 -8 -3 -31 -24 -45 -36 -24 -9 14 -56 -11
-56 -29 0 -11 -9 -16 -30 -15 -22 0 -30 5 -30 17 0 25 -27 23 -35 -2 -5 -15
-14 -20 -36 -18 -36 3 -43 11 -35 44 5 20 11 24 29 19 12 -4 17 -3 11 2 -38
28 -44 97 -14 175 11 28 18 54 15 56 -2 2 -30 8 -62 13 -104 15 -118 20 -129
44 -9 19 -9 22 2 18 8 -3 14 0 14 6 0 6 7 11 16 11 9 0 24 8 33 19 9 10 26 21
39 25 15 5 21 13 18 22 -3 8 1 14 9 14 8 0 17 11 21 25 4 14 9 24 11 21 14
-13 50 55 59 110 3 16 7 64 10 106 5 73 4 77 -18 84 -13 4 -26 7 -30 6 -4 -1
-5 4 -2 12 4 10 -2 12 -23 9 -21 -3 -24 -2 -13 5 8 6 36 13 62 17 52 8 48 12
63 -78 6 -37 6 -37 28 -20 13 9 24 26 25 37 1 22 52 67 66 59 4 -3 2 -10 -5
-15 -17 -12 -3 -7 31 11 14 7 33 23 43 37 17 23 17 24 -3 24 -20 0 -26 11 -13
23 3 4 13 1 21 -5 11 -10 17 -7 32 12 21 28 16 48 -6 25 -19 -18 -31 -19 -37
-2 -3 9 -9 9 -26 -1 -24 -14 -28 -7 -6 14 8 8 12 21 9 29 -4 9 0 15 9 15 17 0
32 34 22 50 -3 5 1 10 9 10 26 0 31 -2 29 -9 -1 -4 13 -5 32 -3 18 2 36 -1 39
-7 8 -13 46 3 59 25 4 8 17 14 27 14 13 0 20 7 20 20 0 11 7 20 15 20 8 0 15
5 15 10 0 6 -9 10 -19 10 -11 0 -23 -4 -26 -10 -3 -5 -13 -10 -21 -10 -8 0
-12 5 -9 10 9 14 -16 12 -45 -5 -14 -8 -31 -14 -37 -15 -22 0 -14 16 15 30 15
7 22 15 15 17 -6 2 -25 -3 -42 -12 -29 -14 -31 -14 -31 1 0 14 -8 16 -47 11
l-48 -6 33 17 c27 13 37 14 53 4 23 -14 41 -8 33 12 -6 16 75 43 249 82 128
30 167 43 167 56 0 5 -4 7 -9 3 -5 -3 -12 -1 -16 5 -10 16 242 12 347 -5z
m242 -103 c3 -5 -8 -6 -25 -4 -16 2 -29 6 -29 8 0 8 49 4 54 -4z m-4 -32 c0
-13 -11 -13 -30 0 -12 8 -11 10 8 10 12 0 22 -4 22 -10z m-2380 -10 c0 -5 -5
-10 -11 -10 -5 0 -7 5 -4 10 3 6 8 10 11 10 2 0 4 -4 4 -10z m2546 -13 c18
-16 25 -30 21 -40 -9 -24 -26 -21 -36 5 -5 15 -17 23 -32 23 -14 0 -25 7 -27
18 -5 26 41 22 74 -6z m-86 2 c0 -5 -5 -7 -11 -3 -8 5 -10 -1 -7 -18 4 -21 1
-24 -14 -20 -22 5 -23 10 -1 34 18 20 33 24 33 7z m-180 -23 c-26 -13 -40 -12
-40 5 0 5 15 9 33 9 l32 0 -25 -14z m-2258 -20 c4 -6 8 -15 8 -21 0 -5 -5 -3
-10 5 -9 13 -11 12 -10 -5 0 -3 -5 -11 -12 -19 -10 -11 -15 -9 -25 12 -20 38
-17 50 15 44 15 -3 30 -10 34 -16z m2488 2 c0 -14 -18 -17 -28 -5 -8 10 -6 13
9 13 10 0 19 -4 19 -8z m-1140 -8 c0 -5 -2 -10 -4 -10 -3 0 -8 5 -11 10 -3 6
-1 10 4 10 6 0 11 -4 11 -10z m-1296 -19 c3 -5 -1 -11 -9 -14 -9 -4 -12 -1 -8
9 6 16 10 17 17 5z m-964 -11 c0 -5 -5 -10 -11 -10 -5 0 -7 5 -4 10 3 6 8 10
11 10 2 0 4 -4 4 -10z m3295 -40 c3 -5 -1 -10 -9 -10 -9 0 -16 5 -16 10 0 6 4
10 9 10 6 0 13 -4 16 -10z m252 -6 c-3 -3 -12 -4 -19 -1 -8 3 -5 6 6 6 11 1
17 -2 13 -5z m-1353 -160 c27 -10 18 -21 -26 -32 -52 -13 -71 0 -31 21 34 18
37 19 57 11z m-104 -39 c13 -16 3 -20 -24 -9 -9 3 -13 10 -10 15 8 13 20 11
34 -6z m1700 -26 c0 -6 -4 -7 -10 -4 -5 3 -10 11 -10 16 0 6 5 7 10 4 6 -3 10
-11 10 -16z m-250 -3 c0 -3 -4 -8 -10 -11 -5 -3 -10 -1 -10 4 0 6 5 11 10 11
6 0 10 -2 10 -4z m217 -2 c-3 -3 -12 -4 -19 -1 -8 3 -5 6 6 6 11 1 17 -2 13
-5z m237 -210 c3 -8 2 -12 -4 -9 -6 3 -10 10 -10 16 0 14 7 11 14 -7z m-410
-145 c14 -17 26 -27 26 -22 0 4 7 -1 15 -11 16 -21 20 -83 7 -103 -4 -6 -21
-11 -37 -10 -17 0 -47 0 -68 -1 -35 -2 -37 -3 -23 -18 9 -8 14 -20 11 -24 -7
-12 -35 -1 -35 13 0 6 -3 7 -6 4 -10 -9 -45 60 -38 76 2 7 0 25 -5 39 -8 22
-5 30 18 52 32 30 39 32 37 9 0 -10 7 -19 18 -21 14 -3 17 0 12 13 -4 13 -2
16 9 11 9 -3 15 0 15 9 0 23 16 18 44 -16z m-359 -63 c72 -30 77 -130 7 -154
-67 -23 -112 12 -112 85 0 38 4 46 33 63 38 24 30 23 72 6z m97 -48 c-7 -7
-12 -8 -12 -2 0 14 12 26 19 19 2 -3 -1 -11 -7 -17z m668 -123 c-11 -13 -8
-16 19 -21 28 -6 44 -24 21 -24 -6 0 -20 -11 -32 -25 -26 -30 -39 -31 -55 -6
-10 15 -8 23 8 40 11 12 18 25 14 30 -3 5 1 12 7 14 24 10 30 7 18 -8z m-120
-5 c0 -5 -4 -10 -9 -10 -6 0 -13 5 -16 10 -3 6 1 10 9 10 9 0 16 -4 16 -10z
m-580 -44 c0 -2 -7 -7 -16 -10 -8 -3 -12 -2 -9 4 6 10 25 14 25 6z m615 -26
c3 -5 1 -10 -4 -10 -6 0 -11 5 -11 10 0 6 2 10 4 10 3 0 8 -4 11 -10z m-235
-40 c0 -5 -4 -10 -10 -10 -5 0 -10 5 -10 10 0 6 5 10 10 10 6 0 10 -4 10 -10z
m234 -6 c20 -8 21 -34 1 -34 -8 0 -15 2 -15 4 0 2 -3 11 -6 20 -7 18 -4 19 20
10z m56 -3 c0 -5 8 -7 19 -4 14 3 20 -2 24 -24 3 -15 3 -31 0 -36 -5 -9 -33
17 -33 32 0 6 -4 11 -10 11 -12 0 -13 -17 -1 -24 5 -3 7 -15 4 -25 -5 -19 -6
-18 -30 2 -13 12 -19 23 -14 25 6 2 11 12 11 21 0 10 3 21 7 24 9 10 23 9 23
-2z m220 -7 c0 -8 -4 -12 -10 -9 -5 3 -10 10 -10 16 0 5 5 9 10 9 6 0 10 -7
10 -16z m-330 -94 c0 -5 -4 -10 -10 -10 -5 0 -10 5 -10 10 0 6 5 10 10 10 6 0
10 -4 10 -10z m-1420 -116 c0 -2 -7 -4 -15 -4 -8 0 -15 4 -15 10 0 5 7 7 15 4
8 -4 15 -8 15 -10z m-115 -14 c3 -6 -1 -7 -9 -4 -18 7 -21 14 -7 14 6 0 13 -4
16 -10z m1405 -20 c0 -5 -5 -10 -11 -10 -5 0 -7 5 -4 10 3 6 8 10 11 10 2 0 4
-4 4 -10z m-470 -24 c0 -2 -11 -11 -25 -20 -21 -14 -25 -14 -25 -2 0 8 8 17
18 19 25 7 32 7 32 3z m30 -66 c0 -5 -4 -10 -9 -10 -6 0 -13 5 -16 10 -3 6 1
10 9 10 9 0 16 -4 16 -10z m-640 -30 c0 -13 -7 -20 -20 -20 -18 0 -19 3 -10
20 6 11 15 20 20 20 6 0 10 -9 10 -20z m484 -15 c-6 -16 -24 -21 -24 -7 0 11
11 22 21 22 5 0 6 -7 3 -15z m326 -20 c0 -9 -9 -15 -23 -15 -13 0 -28 -5 -35
-12 -9 -9 -15 -9 -23 -1 -16 16 -3 32 20 26 10 -3 22 0 25 6 10 16 36 13 36
-4z m-380 -9 c0 -3 -4 -8 -10 -11 -5 -3 -10 -1 -10 4 0 6 5 11 10 11 6 0 10
-2 10 -4z m430 -6 c0 -5 -2 -10 -4 -10 -3 0 -8 5 -11 10 -3 6 -1 10 4 10 6 0
11 -4 11 -10z m-2472 -22 c2 -9 -6 -26 -17 -37 -10 -10 -16 -23 -13 -27 4 -4
-1 -4 -11 -1 -10 4 -23 7 -27 7 -5 0 -14 9 -20 19 -8 16 -5 23 23 39 37 24 60
24 65 0z m2397 -6 c-3 -3 -11 0 -18 7 -9 10 -8 11 6 5 10 -3 15 -9 12 -12z
m-35 -12 c0 -4 -7 -13 -15 -20 -22 -18 -44 2 -26 24 12 14 41 12 41 -4z
m-2097 -214 c155 -87 222 -118 264 -118 61 0 105 12 100 26 -3 8 14 16 50 22
l54 10 -6 -25 c-10 -39 -65 -132 -75 -126 -5 3 -12 0 -16 -6 -4 -8 -3 -9 4 -5
17 10 15 -7 -4 -30 -8 -10 -12 -13 -8 -5 4 9 3 12 -4 7 -5 -3 -13 0 -16 6 -3
7 -3 1 0 -14 5 -23 3 -26 -15 -21 -16 4 -22 -1 -27 -21 -5 -21 -9 -24 -18 -14
-6 7 -10 11 -9 9 5 -7 -40 -35 -74 -47 -30 -10 -31 -10 -27 12 2 13 -1 24 -7
24 -6 0 -9 -15 -7 -37 2 -25 -1 -37 -9 -36 -6 1 -33 -48 -60 -110 -67 -157
-96 -211 -115 -215 -13 -3 -16 3 -12 22 2 15 0 26 -6 26 -6 0 -8 5 -4 11 5 8
9 8 14 -1 10 -16 9 -18 75 150 82 208 106 279 109 327 2 40 0 45 -38 70 -22
16 -48 35 -57 43 -30 26 -43 36 -76 55 -18 11 -33 23 -33 27 0 12 8 10 53 -16z
m-1288 -126 c3 -5 -3 -10 -14 -10 -12 0 -21 5 -21 10 0 6 6 10 14 10 8 0 18
-4 21 -10z m-345 -224 c0 -15 -29 -30 -39 -20 -3 3 3 12 13 20 24 17 26 17 26
0z m1639 -393 c-52 -54 -116 -129 -141 -168 -51 -76 -73 -102 -103 -125 -19
-15 -19 -15 -2 10 41 59 42 66 14 132 -15 34 -26 63 -24 64 2 2 20 -2 42 -9
30 -9 39 -9 43 1 2 7 8 12 14 12 6 0 32 18 58 40 26 22 51 40 55 40 4 0 32 23
62 50 92 85 81 55 -18 -47z m2337 -87 c0 -14 -5 -21 -9 -17 -4 4 -5 15 -1 24
9 24 12 21 10 -7z m-46 -86 c0 -5 -4 -10 -10 -10 -5 0 -10 5 -10 10 0 6 5 10
10 10 6 0 10 -4 10 -10z m-2570 -164 c0 -2 -8 -10 -17 -17 -16 -13 -17 -12 -4
4 13 16 21 21 21 13z m-1106 -133 c-2 -60 -6 -121 -9 -138 -4 -22 -2 -26 5
-15 9 13 10 13 11 0 1 -8 1 -23 0 -32 -1 -10 3 -18 8 -18 6 0 10 -3 10 -7 -3
-21 2 -33 16 -33 9 0 12 -6 9 -15 -4 -8 -1 -15 5 -15 5 0 19 -10 30 -22 11
-12 29 -22 38 -23 10 0 23 -4 29 -8 27 -16 214 -38 214 -25 0 5 5 6 12 2 7 -4
8 -3 4 4 -4 7 2 16 16 21 13 5 36 20 52 34 42 36 86 14 86 -44 0 -32 -37 -49
-105 -49 -72 0 -460 71 -497 91 -28 15 -21 100 21 244 5 17 14 53 21 80 25
105 28 101 24 -32z m-254 -66 c0 -7 -7 -22 -15 -33 -8 -10 -14 -28 -14 -39 0
-20 0 -20 14 -1 15 20 15 20 15 0 0 -10 -5 -26 -10 -34 -9 -13 -11 -13 -20 0
-8 13 -10 12 -10 -3 0 -10 -4 -15 -10 -12 -17 10 -11 54 13 95 22 40 37 51 37
27z m991 -140 c-10 -9 -11 -8 -5 6 3 10 9 15 12 12 3 -3 0 -11 -7 -18z m-1001
-7 c0 -5 -2 -10 -4 -10 -3 0 -8 5 -11 10 -3 6 -1 10 4 10 6 0 11 -4 11 -10z
m80 -9 c0 -6 -4 -13 -10 -16 -5 -3 -10 1 -10 9 0 9 5 16 10 16 6 0 10 -4 10
-9z"/>
<path d="M6190 6190 c0 -5 6 -10 14 -10 8 0 18 5 21 10 3 6 -3 10 -14 10 -12
0 -21 -4 -21 -10z"/>
<path d="M6250 6170 c-8 -5 -12 -12 -9 -15 4 -3 12 1 19 10 14 17 11 19 -10 5z"/>
<path d="M6200 6161 c0 -5 7 -14 15 -21 12 -10 15 -10 15 3 0 8 -7 17 -15 21
-8 3 -15 2 -15 -3z"/>
<path d="M5625 6130 c-3 -5 -2 -10 4 -10 5 0 13 5 16 10 3 6 2 10 -4 10 -5 0
-13 -4 -16 -10z"/>
<path d="M6220 6100 c11 -21 22 -25 33 -13 7 6 -21 32 -36 33 -4 0 -3 -9 3
-20z"/>
<path d="M6280 6112 c0 -3 8 -10 17 -17 13 -10 19 -10 30 1 19 19 16 23 -17
22 -16 -1 -30 -3 -30 -6z"/>
<path d="M5815 6099 c-4 -6 -5 -12 -2 -15 7 -7 37 7 37 17 0 13 -27 11 -35 -2z"/>
<path d="M6052 6103 c-6 -3 -10 -9 -6 -14 3 -5 -2 -9 -10 -9 -8 0 -18 -4 -21
-10 -3 -6 4 -10 17 -10 13 0 29 9 35 20 13 20 7 30 -15 23z"/>
<path d="M6105 6100 c-3 -5 3 -10 14 -10 12 0 21 5 21 10 0 6 -6 10 -14 10 -8
0 -18 -4 -21 -10z"/>
<path d="M6141 6076 c-10 -12 -8 -13 8 -9 12 3 21 9 21 14 0 14 -16 11 -29 -5z"/>
<path d="M6188 6053 c6 -2 18 -2 25 0 6 3 1 5 -13 5 -14 0 -19 -2 -12 -5z"/>
<path d="M6320 6050 c0 -5 4 -10 9 -10 6 0 13 5 16 10 3 6 -1 10 -9 10 -9 0
-16 -4 -16 -10z"/>
<path d="M6075 6030 c-3 -5 -1 -10 4 -10 6 0 11 5 11 10 0 6 -2 10 -4 10 -3 0
-8 -4 -11 -10z"/>
<path d="M6260 6004 c0 -9 7 -14 17 -12 25 5 28 28 4 28 -12 0 -21 -6 -21 -16z"/>
<path d="M5755 6000 c-35 -9 -83 -28 -73 -29 4 -1 0 -17 -8 -37 -8 -19 -12
-44 -9 -55 6 -16 2 -20 -17 -18 -42 4 -58 -1 -58 -16 0 -17 75 -22 85 -5 4 6
13 7 23 1 21 -11 95 1 139 24 18 9 43 29 56 44 17 21 28 26 40 20 18 -10 71 6
63 19 -3 5 -19 7 -36 4 -25 -3 -29 -1 -24 12 7 19 45 21 63 4 11 -11 13 -10 9
2 -6 21 -35 24 -80 9 -25 -8 -38 -18 -38 -30 0 -38 -101 -85 -166 -77 -24 2
-30 8 -32 32 -6 54 73 105 139 91 22 -5 29 -4 25 4 -8 12 -56 13 -101 1z"/>
<path d="M5582 5948 c5 -15 37 -18 41 -3 1 6 -9 12 -22 13 -16 3 -22 -1 -19
-10z"/>
<path d="M6620 5936 c0 -9 5 -16 10 -16 6 0 10 4 10 9 0 6 -4 13 -10 16 -5 3
-10 -1 -10 -9z"/>
<path d="M6558 5933 c7 -3 16 -2 19 1 4 3 -2 6 -13 5 -11 0 -14 -3 -6 -6z"/>
<path d="M5515 5919 c-4 -6 -5 -13 -2 -16 7 -7 27 6 27 18 0 12 -17 12 -25 -2z"/>
<path d="M6725 5816 c-16 -12 -18 -17 -7 -27 15 -16 36 1 30 25 -3 15 -5 15
-23 2z"/>
<path d="M5400 5691 c0 -12 3 -21 8 -21 12 1 47 30 35 30 -6 0 -18 3 -27 6
-12 4 -16 0 -16 -15z"/>
<path d="M6340 5665 c0 -9 5 -15 11 -13 6 2 11 8 11 13 0 5 -5 11 -11 13 -6 2
-11 -4 -11 -13z"/>
<path d="M6320 5636 c0 -2 7 -7 16 -10 8 -3 12 -2 9 4 -6 10 -25 14 -25 6z"/>
<path d="M6412 5628 c6 -18 28 -21 28 -4 0 9 -7 16 -16 16 -9 0 -14 -5 -12
-12z"/>
<path d="M6760 5629 c0 -5 5 -7 10 -4 6 3 10 8 10 11 0 2 -4 4 -10 4 -5 0 -10
-5 -10 -11z"/>
<path d="M6287 5596 c-4 -10 0 -12 14 -9 22 6 26 23 5 23 -8 0 -16 -6 -19 -14z"/>
<path d="M6450 5580 c0 -5 -7 -10 -16 -10 -8 0 -12 -5 -9 -10 4 -6 15 -8 26
-5 12 4 19 2 19 -6 0 -7 3 -10 6 -6 8 8 -5 47 -17 47 -5 0 -9 -4 -9 -10z"/>
<path d="M6252 5568 c2 -6 10 -14 16 -16 7 -2 10 2 6 12 -7 18 -28 22 -22 4z"/>
<path d="M6350 5561 c0 -6 5 -13 10 -16 6 -3 10 1 10 9 0 9 -4 16 -10 16 -5 0
-10 -4 -10 -9z"/>
<path d="M6737 5563 c-7 -14 -18 -63 -13 -63 12 0 36 34 36 51 0 19 -15 26
-23 12z"/>
<path d="M6685 5537 c-4 -10 -5 -21 -1 -24 10 -10 18 4 13 24 -4 17 -4 17 -12
0z"/>
<path d="M5480 5520 c0 -5 5 -10 10 -10 6 0 10 5 10 10 0 6 -4 10 -10 10 -5 0
-10 -4 -10 -10z"/>
<path d="M6636 5481 c-3 -5 0 -11 8 -14 8 -3 17 1 20 9 6 15 -19 20 -28 5z"/>
<path d="M5306 5391 c-4 -5 -2 -12 3 -15 5 -4 12 -2 15 3 4 5 2 12 -3 15 -5 4
-12 2 -15 -3z"/>
<path d="M6375 5390 c-3 -5 -1 -10 4 -10 6 0 11 5 11 10 0 6 -2 10 -4 10 -3 0
-8 -4 -11 -10z"/>
<path d="M5885 5280 c3 -5 8 -10 11 -10 2 0 4 5 4 10 0 6 -5 10 -11 10 -5 0
-7 -4 -4 -10z"/>
<path d="M5845 5230 c3 -5 8 -10 11 -10 2 0 4 5 4 10 0 6 -5 10 -11 10 -5 0
-7 -4 -4 -10z"/>
<path d="M6357 5158 c-6 -21 -5 -22 7 -5 9 11 16 14 19 7 3 -6 5 -6 3 2 -4 22
-23 19 -29 -4z"/>
<path d="M5470 5120 c0 -23 25 -27 33 -6 7 16 -1 26 -20 26 -7 0 -13 -9 -13
-20z"/>
<path d="M5666 5121 c-4 -7 -5 -15 -2 -18 9 -9 19 4 14 18 -4 11 -6 11 -12 0z"/>
<path d="M6320 5120 c0 -5 7 -10 16 -10 8 0 12 5 9 10 -3 6 -10 10 -16 10 -5
0 -9 -4 -9 -10z"/>
<path d="M5375 5110 c-7 -12 2 -30 16 -30 5 0 9 9 9 20 0 21 -15 27 -25 10z"/>
<path d="M5927 5104 c-8 -8 1 -24 14 -24 5 0 9 7 9 15 0 15 -12 20 -23 9z"/>
<path d="M5550 5085 c0 -8 5 -15 10 -15 6 0 10 7 10 15 0 8 -4 15 -10 15 -5 0
-10 -7 -10 -15z"/>
<path d="M5627 5063 c-13 -12 -7 -51 8 -57 8 -3 15 0 15 6 0 6 8 4 18 -5 20
-19 32 -22 32 -9 0 5 -12 14 -26 21 -19 8 -25 17 -21 31 5 19 -12 28 -26 13z"/>
<path d="M5290 5000 c0 -5 5 -10 10 -10 6 0 10 5 10 10 0 6 -4 10 -10 10 -5 0
-10 -4 -10 -10z"/>
<path d="M5369 5003 c-1 -4 -1 -12 0 -16 1 -4 -4 -17 -10 -28 -10 -20 -10 -20
16 -3 26 17 30 44 8 52 -7 2 -14 0 -14 -5z"/>
<path d="M5650 4981 c0 -22 37 -31 66 -16 24 12 25 15 10 21 -9 4 -22 2 -28
-4 -8 -8 -17 -8 -30 -1 -12 6 -18 6 -18 0z"/>
<path d="M5565 4971 c-3 -5 -1 -12 4 -15 5 -3 11 1 15 9 6 16 -9 21 -19 6z"/>
<path d="M5730 4945 c-11 -13 -10 -19 8 -36 12 -11 22 -17 22 -13 0 3 7 1 15
-6 13 -10 15 -9 15 9 0 11 5 21 12 21 18 0 -12 26 -38 34 -13 4 -26 1 -34 -9z"/>
<path d="M6462 4943 c5 -25 28 -28 28 -4 0 12 -6 21 -16 21 -9 0 -14 -7 -12
-17z"/>
<path d="M6373 4901 c-6 -24 -8 -25 -32 -11 -16 8 -18 5 -15 -20 2 -18 -3 -36
-13 -46 -16 -16 -16 -16 7 -9 14 5 33 8 43 7 26 -1 21 15 -10 33 -28 16 -28
16 20 11 28 -3 47 -2 47 4 0 6 -4 10 -10 10 -5 0 -10 6 -10 14 0 24 -21 30
-27 7z"/>
<path d="M6450 4860 c-14 -11 -32 -20 -40 -21 -10 0 -11 -2 -2 -6 18 -7 15
-33 -5 -34 -10 0 -13 -3 -7 -5 19 -8 82 25 89 47 10 31 -7 40 -35 19z"/>
<path d="M6500 4861 c0 -5 5 -13 10 -16 6 -3 10 -2 10 4 0 5 -4 13 -10 16 -5
3 -10 2 -10 -4z"/>
<path d="M6180 4850 c0 -5 5 -10 10 -10 6 0 10 5 10 10 0 6 -4 10 -10 10 -5 0
-10 -4 -10 -10z"/>
<path d="M6080 4824 c0 -8 5 -12 10 -9 6 4 8 11 5 16 -9 14 -15 11 -15 -7z"/>
<path d="M6323 4683 c-18 -7 -16 -23 2 -23 8 0 15 7 15 15 0 8 -1 15 -2 14 -2
0 -9 -3 -15 -6z"/>
<path d="M6846 5381 c5 -11 3 -13 -11 -8 -9 4 -24 2 -32 -5 -11 -8 -19 -9 -32
-1 -14 9 -16 5 -16 -33 l0 -43 22 27 c18 22 22 23 23 10 0 -10 5 -18 11 -18 6
0 9 6 6 14 -7 18 22 31 37 16 5 -5 14 -10 18 -10 14 0 9 17 -13 41 -11 13 -17
18 -13 10z"/>
<path d="M5283 8716 c-8 -25 -7 -39 3 -57 12 -22 13 -20 14 34 0 31 -1 57 -3
57 -2 0 -8 -15 -14 -34z"/>
<path d="M5680 8610 c-12 -16 -19 -30 -16 -30 2 0 14 14 26 30 12 17 19 30 16
30 -2 0 -14 -13 -26 -30z"/>
<path d="M5100 8519 c0 -5 5 -7 10 -4 6 3 10 8 10 11 0 2 -4 4 -10 4 -5 0 -10
-5 -10 -11z"/>
<path d="M4564 8379 c26 -17 50 -28 53 -26 5 6 -79 57 -93 57 -5 0 13 -14 40
-31z"/>
<path d="M6060 8297 c-30 -11 -60 -28 -66 -36 -7 -8 -16 -11 -24 -6 -8 5 -11
4 -7 -3 4 -5 -7 -22 -24 -36 -55 -46 -2 -30 60 19 31 25 75 54 96 64 52 26 34
25 -35 -2z"/>
<path d="M4233 7441 c65 -18 111 -41 57 -28 -14 4 -53 9 -85 12 -59 6 -58 5
30 -18 50 -14 107 -32 128 -40 40 -17 43 -14 25 26 -15 31 -77 54 -168 62
l-55 5 68 -19z"/>
<path d="M5890 7415 c-11 -13 -10 -14 4 -9 9 3 16 10 16 15 0 13 -6 11 -20 -6z"/>
<path d="M4050 7309 c47 -16 92 -32 100 -36 8 -3 18 -6 22 -5 4 1 5 -4 2 -12
-4 -11 -18 -11 -87 0 -123 20 -124 16 -3 -17 l108 -29 48 43 c27 23 45 45 42
49 -13 13 -176 38 -246 37 l-71 -1 85 -29z"/>
<path d="M3528 7019 c-10 -5 -18 -7 -18 -3 0 10 -40 -27 -51 -47 -15 -29 60
-5 95 30 27 27 28 31 11 31 -11 0 -28 -5 -37 -11z"/>
<path d="M3448 6928 c-21 -17 -35 -62 -17 -56 21 7 64 68 47 68 -8 0 -21 -6
-30 -12z"/>
<path d="M6178 6743 c-28 -15 -41 -16 -33 -3 4 6 -23 -4 -59 -22 l-65 -32 42
-32 c23 -18 63 -57 88 -86 l46 -53 119 1 c105 1 126 4 182 28 62 27 63 27 120
11 196 -56 368 -188 561 -432 23 -29 44 -53 47 -53 8 0 -91 184 -129 240 -107
157 -241 254 -394 283 -35 6 -63 14 -63 17 0 3 38 21 85 41 l85 36 -47 1 c-27
0 -88 -8 -137 -19 -85 -19 -125 -19 -76 -1 13 5 19 11 14 15 -11 7 -104 -12
-120 -24 -6 -5 -24 -8 -40 -7 -16 0 -45 -4 -64 -10 -34 -11 -35 -11 -12 6 37
27 78 64 62 56 -8 -5 -21 -9 -28 -10 -12 -2 -104 -47 -176 -86 -40 -22 -46
-22 -46 -1 0 9 -7 24 -15 33 -13 14 -13 17 -1 17 8 0 14 -5 13 -11 -2 -13 39
-10 70 6 12 6 20 15 17 20 -3 5 -12 3 -21 -3 -12 -10 -16 -10 -23 0 -4 8 -13
10 -19 7 -23 -15 -10 14 14 31 14 10 35 25 46 33 l21 16 -21 0 c-12 0 -31 -6
-43 -13z m167 -123 c-3 -5 -11 -10 -16 -10 -6 0 -7 5 -4 10 3 6 11 10 16 10 6
0 7 -4 4 -10z m352 -66 c-3 -3 -12 -4 -19 -1 -8 3 -5 6 6 6 11 1 17 -2 13 -5z
m68 -14 l20 -9 -20 0 c-11 0 -29 4 -40 9 l-20 9 20 0 c11 0 29 -4 40 -9z"/>
<path d="M6300 6709 c0 -5 5 -7 10 -4 6 3 10 8 10 11 0 2 -4 4 -10 4 -5 0 -10
-5 -10 -11z"/>
<path d="M6410 6709 c0 -5 5 -7 10 -4 6 3 10 8 10 11 0 2 -4 4 -10 4 -5 0 -10
-5 -10 -11z"/>
<path d="M6589 6693 c-13 -15 -12 -15 9 -4 23 12 28 21 13 21 -5 0 -15 -7 -22
-17z"/>
<path d="M7660 6615 c36 -32 99 -92 140 -134 41 -42 70 -69 64 -61 -56 79
-115 146 -158 178 -89 69 -113 77 -46 17z"/>
<path d="M4895 6300 c-3 -5 -2 -10 4 -10 5 0 13 5 16 10 3 6 2 10 -4 10 -5 0
-13 -4 -16 -10z"/>
<path d="M4480 6255 c-59 -57 -100 -92 -105 -87 -3 3 -5 -2 -5 -11 0 -9 -4
-17 -9 -17 -11 0 -55 -59 -50 -65 2 -2 51 43 108 101 57 57 100 104 95 103 -5
0 -20 -11 -34 -24z"/>
<path d="M6930 6180 c0 -5 7 -10 15 -10 8 0 41 -14 72 -31 50 -27 55 -28 38
-9 -33 36 -125 73 -125 50z"/>
<path d="M3110 6145 c0 -8 4 -15 10 -15 5 0 7 7 4 15 -4 8 -8 15 -10 15 -2 0
-4 -7 -4 -15z"/>
<path d="M4298 6121 c-11 -21 -12 -28 -4 -25 15 6 40 54 28 54 -4 0 -15 -13
-24 -29z"/>
<path d="M3370 5495 c0 -3 11 -18 25 -33 24 -26 25 -26 25 -5 0 12 -9 27 -19
33 -22 11 -31 13 -31 5z"/>
<path d="M3290 5380 c33 -42 48 -47 81 -30 27 15 24 28 -5 23 -16 -3 -36 4
-59 21 -48 37 -54 32 -17 -14z"/>
<path d="M3903 5367 c14 -36 -32 -165 -108 -308 -8 -14 -19 -37 -24 -51 -9
-23 -7 -25 10 -21 23 6 28 14 31 46 2 18 7 23 20 19 11 -2 18 -1 17 4 -4 21 3
34 36 70 19 21 35 43 35 48 0 6 -5 3 -11 -6 -15 -27 -29 -21 -16 6 7 13 15 22
19 20 5 -3 8 2 8 10 0 9 8 16 17 16 9 0 13 3 10 6 -3 4 0 15 7 26 12 16 12 24
1 45 -7 14 -11 32 -8 39 3 8 0 14 -5 14 -6 0 -19 8 -28 18 -17 16 -18 16 -11
-1z m7 -132 c0 -8 -4 -15 -10 -15 -5 0 -7 7 -4 15 4 8 8 15 10 15 2 0 4 -7 4
-15z"/>
<path d="M3896 5115 c-11 -8 -15 -15 -9 -15 6 0 16 7 23 15 16 19 11 19 -14 0z"/>
<path d="M3865 5060 c3 -5 8 -10 11 -10 2 0 4 5 4 10 0 6 -5 10 -11 10 -5 0
-7 -4 -4 -10z"/>
<path d="M2520 4957 c0 -1 14 -15 30 -30 33 -31 42 -19 10 13 -17 17 -40 27
-40 17z"/>
<path d="M2570 4840 c0 -29 -51 -82 -82 -83 -35 -3 -24 -17 13 -17 16 0 38 9
49 20 33 33 53 100 30 100 -5 0 -10 -9 -10 -20z"/>
<path d="M3607 4636 c-15 -30 -27 -64 -27 -75 0 -11 -5 -32 -12 -48 -6 -15
-12 -30 -13 -33 -18 -69 -73 -180 -89 -180 -19 0 -32 -20 -18 -29 7 -4 8 -19
2 -44 -7 -32 -6 -36 6 -26 8 6 14 8 14 3 0 -5 7 0 15 10 14 19 15 18 24 -5 5
-13 7 -27 5 -31 -8 -13 22 -2 43 16 12 11 19 25 16 32 -3 8 2 16 10 20 9 3 18
12 21 20 4 10 1 13 -7 9 -6 -4 -4 0 6 8 14 11 15 16 5 20 -8 4 -6 6 5 6 15 1
16 4 6 22 -8 15 -8 19 0 15 11 -7 15 5 12 32 -1 6 3 12 9 12 6 0 8 5 5 10 -3
6 -2 10 3 10 5 0 8 17 7 38 -2 42 4 64 15 57 4 -2 6 6 4 18 -2 12 -7 43 -10
70 -4 26 -11 47 -15 47 -5 0 -9 7 -9 16 0 9 5 12 11 8 7 -4 10 -1 7 6 -9 29
-26 18 -51 -34z"/>
<path d="M2380 4665 c7 -9 15 -13 17 -11 7 7 -7 26 -19 26 -6 0 -6 -6 2 -15z"/>
<path d="M3102 4660 c-14 -12 -18 -21 -12 -25 6 -4 12 -5 13 -4 1 2 8 14 15
27 15 27 14 27 -16 2z"/>
<path d="M2230 4631 c24 -15 140 -42 150 -36 6 3 9 16 9 28 -1 17 -2 18 -6 5
-5 -22 -13 -22 -39 -3 -22 17 -38 19 -29 5 4 -7 -3 -9 -19 -5 -69 14 -81 15
-66 6z"/>
<path d="M4991 4474 c0 -11 3 -14 6 -6 3 7 2 16 -1 19 -3 4 -6 -2 -5 -13z"/>
<path d="M3511 4434 c0 -11 3 -14 6 -6 3 7 2 16 -1 19 -3 4 -6 -2 -5 -13z"/>
<path d="M3430 4310 c0 -5 4 -10 9 -10 6 0 13 5 16 10 3 6 -1 10 -9 10 -9 0
-16 -4 -16 -10z"/>
<path d="M2235 4250 c-3 -5 -1 -10 4 -10 6 0 11 5 11 10 0 6 -2 10 -4 10 -3 0
-8 -4 -11 -10z"/>
<path d="M2201 4196 c-10 -12 -8 -17 8 -26 12 -6 21 -7 21 -1 0 5 -6 12 -12
14 -10 4 -10 6 0 6 13 1 17 21 3 21 -5 0 -14 -6 -20 -14z"/>
<path d="M2437 3973 c-4 -3 -7 -13 -7 -22 1 -13 3 -13 11 2 11 19 8 33 -4 20z"/>
<path d="M2065 2882 c-11 -2 -24 -8 -29 -13 -14 -13 -39 -11 -30 2 4 7 -3 6
-17 -2 -13 -7 -30 -14 -37 -15 -24 -4 -62 -34 -62 -49 0 -18 5 -18 30 -5 11 6
37 7 60 4 35 -6 40 -10 40 -34 0 -15 6 -30 14 -33 8 -3 16 -20 18 -36 l3 -31
33 26 c23 18 30 30 23 38 -7 8 -1 16 22 25 18 8 46 24 63 37 21 15 34 20 41
13 13 -13 83 -20 83 -8 0 5 -10 9 -23 9 -13 0 -45 14 -72 31 -47 30 -120 49
-160 41z"/>
<path d="M2875 2809 c5 -16 4 -19 -5 -14 -9 5 -11 4 -6 -4 11 -17 37 6 29 25
-8 23 -25 16 -18 -7z"/>
<path d="M2349 2803 c-1 -5 -1 -11 -1 -14 1 -4 -22 -9 -51 -12 -28 -4 -53 -11
-55 -17 -2 -5 -15 -7 -29 -4 -19 5 -24 4 -19 -5 12 -18 -24 -52 -46 -45 -13 4
-18 0 -18 -14 0 -11 6 -22 13 -25 9 -3 7 -9 -5 -24 -10 -11 -18 -23 -18 -26 0
-9 27 -9 33 1 2 4 3 2 1 -5 -1 -6 11 -17 28 -24 53 -22 320 51 376 103 54 52
0 98 -130 111 -26 2 -45 1 -43 -4 3 -4 1 -10 -4 -13 -5 -4 -13 -1 -17 5 -5 8
-3 9 6 4 9 -5 11 -4 6 3 -8 13 -25 16 -27 5z"/>
<path d="M2077 2638 c7 -8 10 -18 6 -21 -3 -4 1 -7 10 -7 24 0 21 17 -5 31
-20 11 -21 10 -11 -3z"/>
<path d="M1978 2604 c-16 -8 -28 -19 -28 -25 0 -13 50 -3 65 13 7 8 5 9 -5 4
-8 -4 -6 0 4 8 26 21 2 21 -36 0z"/>
<path d="M2850 2599 c0 -6 -10 -9 -23 -7 -12 1 -43 -8 -70 -20 -49 -23 -63
-38 -25 -29 14 4 29 0 40 -10 11 -10 18 -12 18 -5 0 7 -4 12 -10 12 -5 0 -10
5 -10 10 0 19 27 10 38 -12 10 -21 11 -22 11 -3 1 15 4 17 10 7 7 -11 15 -11
46 2 47 20 55 20 55 -1 0 -9 3 -13 7 -10 3 4 12 2 20 -4 7 -6 22 -9 34 -6 15
4 19 2 15 -8 -3 -8 -1 -17 4 -20 6 -4 10 1 10 10 0 9 6 15 13 12 6 -2 12 -13
11 -25 0 -12 5 -18 12 -15 6 2 10 13 7 24 -4 13 0 19 11 19 21 0 20 -8 -3 -47
-13 -21 -16 -33 -9 -35 13 -5 2 -28 -13 -28 -6 0 -7 5 -4 10 3 6 1 10 -5 10
-6 0 -10 -6 -9 -12 3 -25 -1 -39 -9 -34 -5 3 -9 -1 -9 -9 0 -8 4 -12 9 -9 4 3
11 -1 14 -9 3 -8 32 -21 65 -28 56 -12 79 -29 42 -29 -16 -1 -15 -3 4 -19 19
-16 20 -20 7 -25 -22 -8 -26 -8 -19 4 3 6 2 10 -3 10 -6 0 -9 -11 -8 -24 1
-26 3 -26 75 10 124 62 166 153 99 216 -73 68 -201 122 -316 134 -52 5 -76 3
-87 -6 -10 -9 -15 -9 -15 -1 0 6 -7 11 -15 11 -8 0 -15 -5 -15 -11z"/>
<path d="M2635 2560 c-8 -13 5 -13 25 0 13 8 13 10 -2 10 -9 0 -20 -4 -23 -10z"/>
<path d="M2530 2520 c-9 -6 -10 -10 -3 -10 6 0 15 5 18 10 8 12 4 12 -15 0z"/>
<path d="M2650 2519 c0 -5 5 -7 10 -4 6 3 10 8 10 11 0 2 -4 4 -10 4 -5 0 -10
-5 -10 -11z"/>
<path d="M2945 2501 c-6 -11 13 -26 22 -17 4 3 1 6 -6 6 -7 0 -9 5 -6 10 3 6
4 10 1 10 -3 0 -7 -4 -11 -9z"/>
<path d="M2449 2469 l-24 -20 28 17 c15 9 27 18 27 20 0 8 -8 4 -31 -17z"/>
<path d="M2570 2440 c0 -5 5 -10 11 -10 5 0 7 5 4 10 -3 6 -8 10 -11 10 -2 0
-4 -4 -4 -10z"/>
<path d="M2367 2413 c-20 -16 -36 -32 -37 -36 0 -4 18 7 40 24 37 30 46 39 37
39 -2 0 -20 -12 -40 -27z"/>
<path d="M2518 2427 c6 -7 9 -25 8 -40 -2 -15 0 -27 5 -27 5 0 6 -7 3 -15 -4
-10 0 -15 11 -15 9 0 13 5 10 11 -13 21 -13 57 1 52 7 -2 21 0 31 7 17 10 16
11 -3 5 -12 -3 -28 2 -42 15 -23 22 -40 27 -24 7z"/>
<path d="M2467 2414 c-3 -3 1 -21 9 -39 11 -27 11 -34 0 -38 -9 -4 -11 2 -8
20 3 18 1 24 -7 19 -6 -4 -11 -1 -11 6 0 8 -9 14 -20 15 -14 1 -20 -4 -20 -20
0 -15 -3 -18 -8 -9 -7 10 -14 8 -34 -7 -14 -11 -28 -17 -32 -14 -3 3 -6 1 -6
-5 0 -7 -7 -12 -16 -12 -8 0 -13 -4 -10 -8 2 -4 -3 -8 -12 -9 -57 -4 -115 -13
-119 -17 -2 -2 9 -7 26 -11 36 -8 37 -12 15 -37 -13 -13 -14 -21 -5 -31 6 -8
8 -16 5 -19 -2 -3 2 -8 10 -11 10 -4 13 -1 9 9 -7 18 2 18 21 -2 21 -20 12
-34 -22 -35 -26 -1 -26 -1 6 -12 27 -8 39 -6 78 13 25 13 49 32 54 41 11 19
133 109 149 109 6 0 11 5 11 10 0 6 -4 10 -9 10 -4 0 -7 12 -5 27 1 15 -1 34
-6 43 -5 8 -10 11 -10 6 0 -5 -6 -3 -13 3 -8 6 -16 8 -20 5z"/>
<path d="M2567 2367 c-3 -8 0 -14 7 -14 7 0 13 6 13 14 0 7 -4 13 -8 13 -4 0
-9 -6 -12 -13z"/>
<path d="M2991 2194 c0 -11 3 -14 6 -6 3 7 2 16 -1 19 -3 4 -6 -2 -5 -13z"/>
<path d="M2895 2175 l-40 -13 32 -1 c17 -1 35 4 38 9 4 6 11 8 16 5 5 -4 9 -1
9 4 0 13 -4 13 -55 -4z"/>
<path d="M2613 2159 c-6 -6 -22 -11 -37 -13 -14 -1 -29 -6 -34 -11 -4 -4 16
-5 43 -1 28 4 78 7 113 6 52 -1 62 2 62 16 0 11 -5 14 -17 9 -36 -15 -63 -17
-92 -7 -18 7 -32 7 -38 1z"/>
<path d="M2420 2153 c0 -12 28 -38 34 -32 2 2 -5 13 -15 23 -11 11 -19 15 -19
9z"/>
<path d="M2475 2149 c-4 -6 -5 -12 -2 -15 2 -3 7 2 10 11 7 17 1 20 -8 4z"/>
<path d="M2260 2106 c0 -9 -8 -13 -22 -10 -21 4 -21 4 -3 -4 22 -10 85 -4 85
8 0 7 -33 20 -52 20 -5 0 -8 -6 -8 -14z"/>
<path d="M1683 2065 c-3 -9 -3 -18 -1 -21 3 -3 8 4 11 16 6 23 -1 27 -10 5z"/>
<path d="M2102 2038 c-18 -5 -32 -12 -32 -16 0 -4 -10 -7 -22 -8 -75 -3 -128
-10 -128 -17 0 -5 -4 -6 -8 -3 -15 9 -92 15 -92 7 0 -4 -15 -6 -32 -4 -28 4
-30 2 -15 -7 58 -37 427 9 402 50 -6 10 -27 10 -73 -2z"/>
<path d="M2907 1849 c5 -40 2 -47 -20 -62 -13 -9 -58 -24 -99 -35 -147 -38
-349 -21 -395 33 -21 24 -23 24 -23 6 0 -54 127 -88 290 -78 126 9 206 33 258
80 27 25 28 44 3 76 l-19 25 5 -45z"/>
</g>
</svg>
